<svg width="34" height="42" viewBox="0 0 34 42" fill="none" xmlns="http://www.w3.org/2000/svg">
<path d="M16.9998 -5.90608e-05C14.7658 -0.104837 12.5345 0.257992 10.4488 1.0652C8.36307 1.87241 6.46888 3.10621 4.88746 4.68763C3.30604 6.26905 2.07224 8.16324 1.26503 10.2489C0.457821 12.3347 0.0949924 14.5659 0.19977 16.7999C0.19977 22.0919 4.39977 27.2999 6.49977 29.3999C8.59977 31.4999 16.9998 41.9999 16.9998 41.9999C16.9998 41.9999 25.3998 31.4999 27.4998 29.3999C29.5998 27.2999 33.7998 22.0919 33.7998 16.7999C33.9045 14.5659 33.5417 12.3347 32.7345 10.2489C31.9273 8.16324 30.6935 6.26905 29.1121 4.68763C27.5307 3.10621 25.6365 1.87241 23.5508 1.0652C21.4651 0.257992 19.2338 -0.104837 16.9998 -5.90608e-05ZM16.9998 23.6249C15.6499 23.6249 14.3304 23.2247 13.208 22.4747C12.0856 21.7248 11.2109 20.6589 10.6943 19.4118C10.1777 18.1646 10.0426 16.7924 10.3059 15.4684C10.5693 14.1445 11.2193 12.9284 12.1738 11.9739C13.1283 11.0194 14.3444 10.3694 15.6683 10.1061C16.9922 9.84274 18.3645 9.97789 19.6116 10.4945C20.8587 11.011 21.9246 11.8858 22.6745 13.0082C23.4245 14.1305 23.8248 15.4501 23.8248 16.7999C23.8248 17.6962 23.6482 18.5837 23.3052 19.4118C22.9623 20.2398 22.4595 20.9922 21.8258 21.6259C21.192 22.2597 20.4396 22.7624 19.6116 23.1054C18.7835 23.4484 17.896 23.6249 16.9998 23.6249Z" fill="white"/>
</svg>
