<svg width="36" height="36" viewBox="0 0 36 36" fill="none" xmlns="http://www.w3.org/2000/svg">
<path d="M16.0966 5.50322C15.6465 5.05329 15.0362 4.80054 14.3998 4.80054C13.7634 4.80054 13.1531 5.05329 12.703 5.50322L1.903 16.3032C1.45307 16.7533 1.20032 17.3636 1.20032 18C1.20032 18.6364 1.45307 19.2468 1.903 19.6968L12.703 30.4968C13.1556 30.934 13.7619 31.1759 14.3912 31.1704C15.0204 31.165 15.6224 30.9126 16.0674 30.4676C16.5123 30.0226 16.7648 29.4207 16.7702 28.7914C16.7757 28.1621 16.5338 27.5559 16.0966 27.1032L9.5998 20.4H32.3998C33.0363 20.4 33.6468 20.1472 34.0969 19.6971C34.5469 19.247 34.7998 18.6365 34.7998 18C34.7998 17.3635 34.5469 16.7531 34.0969 16.303C33.6468 15.8529 33.0363 15.6 32.3998 15.6H9.5998L16.0966 8.89682C16.5465 8.44676 16.7993 7.83642 16.7993 7.20002C16.7993 6.56363 16.5465 5.95329 16.0966 5.50322Z" fill="white"/>
</svg>
