<svg width="32" height="42" viewBox="0 0 32 42" fill="none" xmlns="http://www.w3.org/2000/svg">
<g clip-path="url(#clip0_17_282)">
<path d="M31.5 15.75C31.5 22.9195 21.9023 35.6836 17.6941 40.95C16.6852 42.2051 14.8148 42.2051 13.8059 40.95C9.59766 35.6836 0 22.9195 0 15.75C0 7.05469 7.05469 0 15.75 0C24.4453 0 31.5 7.05469 31.5 15.75Z" fill="#1F93FF"/>
<path d="M14.3821 7.15661C14.6578 7.15658 14.9301 7.21702 15.1802 7.33372C15.4302 7.45043 15.6519 7.62058 15.8298 7.83231C16.0077 8.04403 16.1375 8.29223 16.2101 8.55958C16.2827 8.82692 16.2964 9.10698 16.2502 9.38019L18.1193 9.69445C18.1912 9.26531 18.1896 8.82698 18.1145 8.39839C18.473 8.17272 18.8964 8.07412 19.317 8.11832C19.7377 8.16251 20.1316 8.34695 20.436 8.64225C20.7403 8.93756 20.9376 9.32674 20.9964 9.74781C21.0552 10.1689 20.9721 10.5976 20.7604 10.9657H10.5928C10.4457 10.9656 10.3007 10.931 10.1693 10.8648C10.0378 10.7986 9.92354 10.7025 9.83542 10.5841C9.74731 10.4658 9.6878 10.3285 9.66162 10.183C9.63543 10.0376 9.64329 9.88802 9.68456 9.74616C9.72583 9.60429 9.79939 9.47403 9.89942 9.36569C9.99944 9.25734 10.1232 9.17389 10.2608 9.12194C10.3985 9.06999 10.5463 9.05096 10.6925 9.06636C10.8388 9.08177 10.9794 9.13118 11.1034 9.21069C11.231 9.29284 11.3763 9.34303 11.5272 9.35704C11.6781 9.37105 11.8301 9.34846 11.9706 9.29118C12.111 9.2339 12.2357 9.1436 12.3342 9.02785C12.4327 8.91211 12.5021 8.7743 12.5367 8.62599C12.6345 8.20782 12.87 7.83515 13.205 7.56843C13.5399 7.30171 13.9547 7.15659 14.3821 7.15661ZM15.8182 5.53487C14.9622 5.18185 14.0071 5.15606 13.1335 5.46238C12.2598 5.7687 11.5279 6.38593 11.0759 7.19756C10.4677 7.09192 9.84187 7.18816 9.29293 7.47176C8.74399 7.75535 8.30181 8.21087 8.03322 8.76946C7.76463 9.32805 7.68424 9.95935 7.8042 10.5679C7.92415 11.1765 8.23794 11.7293 8.69812 12.1428V23.3454C8.69812 23.8506 8.89773 24.335 9.25305 24.6922C9.60836 25.0493 10.0903 25.25 10.5928 25.25H20.066C20.5685 25.25 21.0504 25.0493 21.4058 24.6922C21.7611 24.335 21.9607 23.8506 21.9607 23.3454H23.8553C24.3578 23.3454 24.8398 23.1448 25.1951 22.7876C25.5504 22.4304 25.75 21.946 25.75 21.4409V14.7749C25.75 14.2698 25.5504 13.7853 25.1951 13.4281C24.8398 13.071 24.3578 12.8703 23.8553 12.8703H21.9607V12.5332C22.5496 11.8629 22.8851 11.0058 22.9085 10.1118C22.9319 9.21785 22.6417 8.34411 22.0887 7.64364C21.5356 6.94317 20.7551 6.46063 19.8837 6.28053C19.0123 6.10043 18.1057 6.23425 17.3226 6.65857C16.9224 6.16358 16.4052 5.77726 15.8182 5.53487ZM21.9607 21.4409V14.7749H23.8553V21.4409H21.9607ZM12.4874 14.7749H14.3821V21.4409H12.4874V14.7749ZM16.2767 14.7749H18.1714V21.4409H16.2767V14.7749Z" fill="white"/>
</g>
<defs>
<clipPath id="clip0_17_282">
<rect width="31.5" height="42" fill="white"/>
</clipPath>
</defs>
</svg>
