<svg width="216" height="216" viewBox="0 0 216 216" fill="none" xmlns="http://www.w3.org/2000/svg">
<path d="M117.018 63.081C145.53 63.081 161.712 81.954 164.061 104.751H164.781C169.139 104.745 173.456 105.598 177.485 107.261C181.514 108.923 185.176 111.363 188.261 114.441C191.347 117.52 193.796 121.175 195.468 125.2C197.141 129.225 198.004 133.54 198.009 137.898C198.003 142.256 197.139 146.569 195.466 150.593C193.793 154.617 191.343 158.272 188.258 161.349C185.172 164.426 181.511 166.865 177.483 168.527C173.455 170.189 169.139 171.042 164.781 171.036H69.2459C64.8882 171.042 60.5721 170.189 56.5438 168.527C52.5156 166.865 48.8543 164.426 45.7687 161.349C42.6832 158.272 40.234 154.617 38.561 150.593C36.8879 146.569 36.0238 142.256 36.0179 137.898C36.0226 133.54 36.8859 129.225 38.5584 125.2C40.2309 121.175 42.6799 117.52 45.7656 114.441C48.8512 111.363 52.513 108.923 56.5418 107.261C60.5706 105.598 64.8874 104.745 69.2459 104.751H69.9659C72.3329 81.801 88.5059 63.081 117.018 63.081ZM117.018 76.554C98.3699 76.554 82.1249 91.26 82.1249 111.564C82.1249 114.777 79.2539 117.306 75.9689 117.306H69.7589C58.4009 117.306 49.2029 126.306 49.2029 137.43C49.2029 148.545 58.4009 157.554 69.7499 157.554H164.277C175.626 157.554 184.824 148.554 184.824 137.43C184.824 126.315 175.626 117.306 164.277 117.306H158.067C154.773 117.306 151.902 114.786 151.902 111.564C151.902 90.999 135.657 76.554 117.018 76.554ZM89.9999 36C104.553 36 117.45 43.335 125.1 54.558C122.418 54.2373 119.719 54.0781 117.018 54.081C113.463 54.081 110.043 54.342 106.767 54.846C102.784 52.0228 98.1517 50.2518 93.3011 49.6972C88.4504 49.1426 83.5383 49.8225 79.0206 51.6737C74.5029 53.5249 70.5262 56.4875 67.4595 60.2864C64.3928 64.0854 62.3356 68.5975 61.4789 73.404L60.8219 77.13C60.4556 79.2151 59.366 81.1044 57.7447 82.4657C56.1233 83.827 54.0739 84.5732 51.9569 84.573H47.5469C44.3756 84.5697 41.2746 85.5065 38.6357 87.2652C35.9968 89.0239 33.9386 91.5254 32.7211 94.4536C31.5036 97.3818 31.1815 100.605 31.7955 103.716C32.4095 106.828 33.9321 109.687 36.1709 111.933C33.3359 115.533 31.0859 119.628 29.5559 124.056C24.7712 120.386 21.2242 115.34 19.3915 109.596C17.5588 103.851 17.5281 97.6829 19.3037 91.9203C21.0792 86.1578 24.5758 81.0766 29.3238 77.3596C34.0717 73.6425 39.8436 71.4676 45.8639 71.127L48.1769 71.073C49.9172 61.2451 55.0624 52.3438 62.7099 45.9305C70.3575 39.5172 80.0191 36.0015 89.9999 36Z" fill="white"/>
</svg>
