<svg width="38" height="34" viewBox="0 0 38 34" fill="none" xmlns="http://www.w3.org/2000/svg">
<path d="M35.3335 0.666626H2.66683C2.04799 0.666626 1.4545 0.912458 1.01691 1.35004C0.579329 1.78763 0.333496 2.38112 0.333496 2.99996V31C0.333496 31.6188 0.579329 32.2123 1.01691 32.6499C1.4545 33.0875 2.04799 33.3333 2.66683 33.3333H35.3335C35.9523 33.3333 36.5458 33.0875 36.9834 32.6499C37.421 32.2123 37.6668 31.6188 37.6668 31V2.99996C37.6668 2.38112 37.421 1.78763 36.9834 1.35004C36.5458 0.912458 35.9523 0.666626 35.3335 0.666626ZM8.40683 5.33329C9.09906 5.33329 9.77575 5.53856 10.3513 5.92315C10.9269 6.30773 11.3755 6.85436 11.6404 7.4939C11.9053 8.13344 11.9746 8.83717 11.8396 9.51611C11.7045 10.195 11.3712 10.8187 10.8817 11.3082C10.3922 11.7977 9.76858 12.131 9.08965 12.266C8.41071 12.4011 7.70698 12.3318 7.06744 12.0669C6.4279 11.802 5.88127 11.3534 5.49669 10.7778C5.1121 10.2022 4.90683 9.52553 4.90683 8.83329C4.90683 7.90503 5.27558 7.0148 5.93196 6.35842C6.58833 5.70204 7.47857 5.33329 8.40683 5.33329ZM5.00016 27.5V22.7166L12.0002 15.6233C12.2188 15.406 12.5144 15.284 12.8227 15.284C13.1309 15.284 13.4266 15.406 13.6452 15.6233L16.6668 18.575L7.70683 27.5H5.00016ZM33.0002 27.5H11.0085L18.2768 20.2316L24.5768 13.9316C24.7954 13.7143 25.0911 13.5924 25.3993 13.5924C25.7075 13.5924 26.0032 13.7143 26.2218 13.9316L33.0002 20.71V27.5Z" fill="white"/>
</svg>
