<svg width="32" height="32" viewBox="0 0 32 32" fill="none" xmlns="http://www.w3.org/2000/svg">
<path d="M15.75 4.48175L3.5 14.2818V28H12.25V21H19.25V28H28V15.1235C28.0001 14.8611 27.9412 14.602 27.8276 14.3654C27.714 14.1288 27.5486 13.9208 27.3438 13.7568L15.75 4.48175ZM15.75 0L29.5295 11.025C30.144 11.5165 30.6401 12.1399 30.9812 12.849C31.3222 13.5581 31.4996 14.3349 31.5 15.1217V28C31.5 28.9283 31.1313 29.8185 30.4749 30.4749C29.8185 31.1313 28.9283 31.5 28 31.5H3.5C2.57174 31.5 1.6815 31.1313 1.02513 30.4749C0.368749 29.8185 0 28.9283 0 28V14.2818C6.54459e-05 13.7572 0.118053 13.2393 0.345237 12.7664C0.572421 12.2936 0.902991 11.8779 1.3125 11.55L15.75 0Z" fill="white"/>
</svg>
