<svg width="42" height="42" viewBox="0 0 42 42" fill="none" xmlns="http://www.w3.org/2000/svg">
<path d="M36.75 34.3437L34.3 36.7937L16.3625 18.8562C15.1375 19.3812 13.7521 19.4541 12.2062 19.075C10.6604 18.6958 9.275 17.8645 8.05 16.5812C6.50417 15.0354 5.6 13.3145 5.3375 11.4187C5.075 9.52287 5.54167 7.97704 6.7375 6.7812C7.93333 5.58537 9.47917 5.1187 11.375 5.3812C13.2708 5.6437 14.9917 6.54787 16.5375 8.0937C17.8208 9.3187 18.6521 10.7041 19.0312 12.25C19.4104 13.7958 19.3375 15.1812 18.8125 16.4062L21 18.5937L34.3 5.2937L36.75 7.7437L23.5375 21.0437L36.75 34.3437ZM21.7875 29.1812L16.5375 34.4312C14.9625 36.0062 13.0812 36.7937 10.8937 36.7937C8.70625 36.7937 6.825 36.0062 5.25 34.4312L16.1875 23.5812L21.7875 29.1812Z" fill="white"/>
</svg>
