<svg width="42" height="42" viewBox="0 0 42 42" fill="none" xmlns="http://www.w3.org/2000/svg">
<path d="M21 0C26.5695 0 31.911 2.21249 35.8492 6.15076C39.7875 10.089 42 15.4305 42 21C42 26.5695 39.7875 31.911 35.8492 35.8492C31.911 39.7875 26.5695 42 21 42C15.4305 42 10.089 39.7875 6.15076 35.8492C2.21249 31.911 0 26.5695 0 21C0 15.4305 2.21249 10.089 6.15076 6.15076C10.089 2.21249 15.4305 0 21 0ZM3.9375 21C3.9375 25.5253 5.73515 29.8652 8.93499 33.065C12.1348 36.2649 16.4747 38.0625 21 38.0625C25.5253 38.0625 29.8652 36.2649 33.065 33.065C36.2649 29.8652 38.0625 25.5253 38.0625 21C38.0625 16.4747 36.2649 12.1348 33.065 8.93499C29.8652 5.73515 25.5253 3.9375 21 3.9375C16.4747 3.9375 12.1348 5.73515 8.93499 8.93499C5.73515 12.1348 3.9375 16.4747 3.9375 21ZM22.3125 12.4688V20.3228L27.636 22.4543C28.1051 22.6588 28.4762 23.0379 28.6705 23.5113C28.8649 23.9847 28.8672 24.5152 28.6771 24.9904C28.487 25.4655 28.1193 25.8479 27.652 26.0566C27.1848 26.2653 26.6546 26.2838 26.1739 26.1082L19.6114 23.4832C19.2466 23.3367 18.934 23.0844 18.7137 22.7589C18.4934 22.4333 18.3754 22.0493 18.375 21.6562V12.4688C18.375 11.9466 18.5824 11.4458 18.9516 11.0766C19.3208 10.7074 19.8216 10.5 20.3438 10.5C20.8659 10.5 21.3667 10.7074 21.7359 11.0766C22.1051 11.4458 22.3125 11.9466 22.3125 12.4688Z" fill="white"/>
</svg>
