<svg width="32" height="32" viewBox="0 0 32 32" fill="none" xmlns="http://www.w3.org/2000/svg">
<path d="M29.05 31.5L18.025 20.475C17.15 21.175 16.1437 21.7292 15.0062 22.1375C13.8687 22.5458 12.6583 22.75 11.375 22.75C8.19583 22.75 5.5055 21.6487 3.304 19.446C1.1025 17.2433 0.00116667 14.553 0 11.375C0 8.19583 1.10133 5.5055 3.304 3.304C5.50667 1.1025 8.197 0.00116667 11.375 0C14.5542 0 17.2445 1.10133 19.446 3.304C21.6475 5.50667 22.7488 8.197 22.75 11.375C22.75 12.6583 22.5458 13.8687 22.1375 15.0062C21.7292 16.1437 21.175 17.15 20.475 18.025L31.5 29.05L29.05 31.5ZM11.375 19.25C13.5625 19.25 15.4222 18.4841 16.954 16.9523C18.4858 15.4204 19.2512 13.5613 19.25 11.375C19.25 9.1875 18.4841 7.32783 16.9523 5.796C15.4204 4.26417 13.5613 3.49883 11.375 3.5C9.1875 3.5 7.32783 4.26592 5.796 5.79775C4.26417 7.32958 3.49883 9.18867 3.5 11.375C3.5 13.5625 4.26592 15.4222 5.79775 16.954C7.32958 18.4858 9.18867 19.2512 11.375 19.25Z" fill="black"/>
</svg>
