<svg width="16" height="19" viewBox="0 0 16 19" fill="none" xmlns="http://www.w3.org/2000/svg">
<path d="M13.6569 2.30402C10.5329 -0.768982 5.4679 -0.768982 2.3439 2.30402C1.60218 3.02865 1.0128 3.89425 0.610413 4.84993C0.208021 5.8056 0.000732422 6.83208 0.000732422 7.86902C0.000732422 8.90596 0.208021 9.93243 0.610413 10.8881C1.0128 11.8438 1.60218 12.7094 2.3439 13.434L7.9999 18.999L13.6569 13.434C14.3986 12.7094 14.988 11.8438 15.3904 10.8881C15.7928 9.93243 16.0001 8.90596 16.0001 7.86902C16.0001 6.83208 15.7928 5.8056 15.3904 4.84993C14.988 3.89425 14.3986 3.02865 13.6569 2.30402ZM7.9999 10.499C7.3319 10.499 6.7049 10.239 6.2319 9.76702C5.76365 9.29777 5.50067 8.66193 5.50067 7.99902C5.50067 7.33611 5.76365 6.70027 6.2319 6.23102C6.7039 5.75902 7.3319 5.49902 7.9999 5.49902C8.6679 5.49902 9.2959 5.75902 9.7679 6.23102C10.2361 6.70027 10.4991 7.33611 10.4991 7.99902C10.4991 8.66193 10.2361 9.29777 9.7679 9.76702C9.2959 10.239 8.6679 10.499 7.9999 10.499Z" fill="white"/>
</svg>
