<svg width="38" height="36" viewBox="0 0 38 36" fill="none" xmlns="http://www.w3.org/2000/svg">
<path d="M19 2.25C19.3149 2.25 19.617 2.36853 19.8397 2.5795C20.0624 2.79048 20.1875 3.07663 20.1875 3.375V5.625C20.1875 5.92337 20.0624 6.20952 19.8397 6.4205C19.617 6.63147 19.3149 6.75 19 6.75C18.6851 6.75 18.383 6.63147 18.1603 6.4205C17.9376 6.20952 17.8125 5.92337 17.8125 5.625V3.375C17.8125 3.07663 17.9376 2.79048 18.1603 2.5795C18.383 2.36853 18.6851 2.25 19 2.25ZM27.3125 18C27.3125 20.0886 26.4367 22.0916 24.8778 23.5685C23.3189 25.0453 21.2046 25.875 19 25.875C16.7954 25.875 14.6811 25.0453 13.1222 23.5685C11.5633 22.0916 10.6875 20.0886 10.6875 18C10.6875 15.9114 11.5633 13.9084 13.1222 12.4315C14.6811 10.9547 16.7954 10.125 19 10.125C21.2046 10.125 23.3189 10.9547 24.8778 12.4315C26.4367 13.9084 27.3125 15.9114 27.3125 18ZM34.4375 19.125C34.7524 19.125 35.0545 19.0065 35.2772 18.7955C35.4999 18.5845 35.625 18.2984 35.625 18C35.625 17.7016 35.4999 17.4155 35.2772 17.2045C35.0545 16.9935 34.7524 16.875 34.4375 16.875H32.0625C31.7476 16.875 31.4455 16.9935 31.2228 17.2045C31.0001 17.4155 30.875 17.7016 30.875 18C30.875 18.2984 31.0001 18.5845 31.2228 18.7955C31.4455 19.0065 31.7476 19.125 32.0625 19.125H34.4375ZM19 29.25C19.3149 29.25 19.617 29.3685 19.8397 29.5795C20.0624 29.7905 20.1875 30.0766 20.1875 30.375V32.625C20.1875 32.9234 20.0624 33.2095 19.8397 33.4205C19.617 33.6315 19.3149 33.75 19 33.75C18.6851 33.75 18.383 33.6315 18.1603 33.4205C17.9376 33.2095 17.8125 32.9234 17.8125 32.625V30.375C17.8125 30.0766 17.9376 29.7905 18.1603 29.5795C18.383 29.3685 18.6851 29.25 19 29.25ZM5.9375 19.125C6.25244 19.125 6.55449 19.0065 6.77719 18.7955C6.99989 18.5845 7.125 18.2984 7.125 18C7.125 17.7016 6.99989 17.4155 6.77719 17.2045C6.55449 16.9935 6.25244 16.875 5.9375 16.875H3.5625C3.24756 16.875 2.94551 16.9935 2.72281 17.2045C2.50011 17.4155 2.375 17.7016 2.375 18C2.375 18.2984 2.50011 18.5845 2.72281 18.7955C2.94551 19.0065 3.24756 19.125 3.5625 19.125H5.9375ZM6.28663 5.95575C6.50931 5.74485 6.81131 5.62637 7.12619 5.62637C7.44107 5.62637 7.74306 5.74485 7.96575 5.95575L10.3408 8.20575C10.4542 8.30953 10.5446 8.43367 10.6069 8.57092C10.6691 8.70817 10.7019 8.8558 10.7032 9.00517C10.7046 9.15455 10.6746 9.30269 10.6149 9.44095C10.5551 9.57921 10.467 9.70482 10.3555 9.81044C10.244 9.91607 10.1114 9.99961 9.96545 10.0562C9.81951 10.1127 9.66314 10.1412 9.50546 10.1399C9.34779 10.1386 9.19196 10.1076 9.04708 10.0486C8.9022 9.98965 8.77117 9.90395 8.66163 9.7965L6.28663 7.5465C6.064 7.33553 5.93894 7.04943 5.93894 6.75112C5.93894 6.45282 6.064 6.16672 6.28663 5.95575ZM7.96575 30.0465C7.74179 30.2514 7.44182 30.3648 7.13046 30.3623C6.8191 30.3597 6.52126 30.2414 6.30109 30.0328C6.08092 29.8242 5.95603 29.542 5.95332 29.2471C5.95062 28.9521 6.07031 28.6679 6.28663 28.4558L8.66163 26.2058C8.77117 26.0983 8.9022 26.0126 9.04708 25.9536C9.19196 25.8947 9.34779 25.8636 9.50546 25.8623C9.66314 25.861 9.81951 25.8895 9.96545 25.9461C10.1114 26.0026 10.244 26.0862 10.3555 26.1918C10.467 26.2974 10.5551 26.423 10.6149 26.5613C10.6746 26.6996 10.7046 26.8477 10.7032 26.9971C10.7019 27.1465 10.6691 27.2941 10.6069 27.4313C10.5446 27.5686 10.4542 27.6927 10.3408 27.7965L7.96575 30.0465ZM31.7157 5.95575C31.4931 5.74485 31.1911 5.62637 30.8762 5.62637C30.5613 5.62637 30.2593 5.74485 30.0366 5.95575L27.6616 8.20575C27.4453 8.41793 27.3256 8.70211 27.3283 8.99708C27.331 9.29205 27.4559 9.57421 27.6761 9.7828C27.8963 9.99138 28.1941 10.1097 28.5055 10.1123C28.8168 10.1148 29.1168 10.0014 29.3407 9.7965L31.7157 7.5465C31.9384 7.33553 32.0634 7.04943 32.0634 6.75112C32.0634 6.45282 31.9384 6.16672 31.7157 5.95575ZM30.0366 30.0465C30.2606 30.2514 30.5606 30.3648 30.8719 30.3623C31.1833 30.3597 31.4811 30.2414 31.7013 30.0328C31.9215 29.8242 32.0463 29.542 32.0491 29.2471C32.0518 28.9521 31.9321 28.6679 31.7157 28.4558L29.3407 26.2058C29.2312 26.0983 29.1002 26.0126 28.9553 25.9536C28.8104 25.8947 28.6546 25.8636 28.4969 25.8623C28.3392 25.861 28.1829 25.8895 28.0369 25.9461C27.891 26.0026 27.7584 26.0862 27.6469 26.1918C27.5354 26.2974 27.4472 26.423 27.3875 26.5613C27.3278 26.6996 27.2978 26.8477 27.2991 26.9971C27.3005 27.1465 27.3333 27.2941 27.3955 27.4313C27.4577 27.5686 27.5482 27.6927 27.6616 27.7965L30.0366 30.0465Z" fill="white"/>
</svg>
