<svg width="19" height="19" viewBox="0 0 19 19" fill="none" xmlns="http://www.w3.org/2000/svg">
<path d="M0.528234 18.4719C0.188443 18.132 -0.00244146 17.6711 -0.00244149 17.1905C-0.00244151 16.7098 0.188442 16.2489 0.528234 15.909L6.93723 9.50001L0.528233 3.09101C0.198072 2.74917 0.0153819 2.29133 0.0195115 1.8161C0.0236411 1.34087 0.21426 0.886269 0.550312 0.550217C0.886364 0.214165 1.34096 0.0235462 1.81619 0.0194167C2.29143 0.0152873 2.74927 0.197977 3.09111 0.528139L9.50011 6.93714L15.9091 0.528138C16.251 0.197976 16.7088 0.0152867 17.184 0.0194161C17.6593 0.0235454 18.1139 0.214164 18.4499 0.550216C18.786 0.886268 18.9766 1.34087 18.9807 1.8161C18.9848 2.29133 18.8021 2.74917 18.472 3.09101L12.063 9.50001L18.472 15.909C18.8021 16.2509 18.9848 16.7087 18.9807 17.1839C18.9766 17.6592 18.786 18.1138 18.4499 18.4498C18.1139 18.7859 17.6593 18.9765 17.184 18.9806C16.7088 18.9847 16.251 18.802 15.9091 18.4719L9.50011 12.0629L3.09111 18.4719C2.75122 18.8117 2.29028 19.0026 1.80967 19.0026C1.32906 19.0026 0.868128 18.8117 0.528234 18.4719Z" fill="black"/>
</svg>
